<svg width="12" height="13" viewBox="0 0 12 13" fill="none" xmlns="http://www.w3.org/2000/svg">
<path d="M10.5 9.57129V5.44629H1.5V9.57129C1.5 10.0686 1.69754 10.5455 2.04917 10.8971C2.40081 11.2487 2.87772 11.4463 3.375 11.4463H8.625C9.12228 11.4463 9.59919 11.2487 9.95083 10.8971C10.3025 10.5455 10.5 10.0686 10.5 9.57129ZM4.49775 7.13229C4.49775 7.28118 4.43861 7.42396 4.33333 7.52924C4.22805 7.63452 4.08526 7.69366 3.93637 7.69366C3.78749 7.69366 3.6447 7.63452 3.53942 7.52924C3.43414 7.42396 3.375 7.28118 3.375 7.13229C3.375 6.9834 3.43414 6.84062 3.53942 6.73534C3.6447 6.63006 3.78749 6.57091 3.93637 6.57091C4.08526 6.57091 4.22805 6.63006 4.33333 6.73534C4.43861 6.84062 4.49775 6.9834 4.49775 7.13229ZM4.49775 9.00729C4.49775 9.15618 4.43861 9.29896 4.33333 9.40424C4.22805 9.50952 4.08526 9.56866 3.93637 9.56866C3.78749 9.56866 3.6447 9.50952 3.53942 9.40424C3.43414 9.29896 3.375 9.15618 3.375 9.00729C3.375 8.8584 3.43414 8.71562 3.53942 8.61034C3.6447 8.50506 3.78749 8.44591 3.93637 8.44591C4.08526 8.44591 4.22805 8.50506 4.33333 8.61034C4.43861 8.71562 4.49775 8.8584 4.49775 9.00729ZM6.56175 7.13229C6.56175 7.28118 6.50261 7.42396 6.39733 7.52924C6.29205 7.63452 6.14926 7.69366 6.00037 7.69366C5.85149 7.69366 5.7087 7.63452 5.60342 7.52924C5.49814 7.42396 5.439 7.28118 5.439 7.13229C5.439 6.9834 5.49814 6.84062 5.60342 6.73534C5.7087 6.63006 5.85149 6.57091 6.00037 6.57091C6.14926 6.57091 6.29205 6.63006 6.39733 6.73534C6.50261 6.84062 6.56175 6.9834 6.56175 7.13229ZM6.56175 9.00729C6.56175 9.15618 6.50261 9.29896 6.39733 9.40424C6.29205 9.50952 6.14926 9.56866 6.00037 9.56866C5.85149 9.56866 5.7087 9.50952 5.60342 9.40424C5.49814 9.29896 5.439 9.15618 5.439 9.00729C5.439 8.8584 5.49814 8.71562 5.60342 8.61034C5.7087 8.50506 5.85149 8.44591 6.00037 8.44591C6.14926 8.44591 6.29205 8.50506 6.39733 8.61034C6.50261 8.71562 6.56175 8.8584 6.56175 9.00729ZM8.62275 7.13229C8.62275 7.28118 8.56361 7.42396 8.45833 7.52924C8.35305 7.63452 8.21026 7.69366 8.06137 7.69366C7.91249 7.69366 7.7697 7.63452 7.66442 7.52924C7.55914 7.42396 7.5 7.28118 7.5 7.13229C7.5 6.9834 7.55914 6.84062 7.66442 6.73534C7.7697 6.63006 7.91249 6.57091 8.06137 6.57091C8.21026 6.57091 8.35305 6.63006 8.45833 6.73534C8.56361 6.84062 8.62275 6.9834 8.62275 7.13229ZM10.5 4.32129C10.5 3.82401 10.3025 3.34709 9.95083 2.99546C9.59919 2.64383 9.12228 2.44629 8.625 2.44629H3.375C2.87772 2.44629 2.40081 2.64383 2.04917 2.99546C1.69754 3.34709 1.5 3.82401 1.5 4.32129V4.69629H10.5V4.32129Z" fill="white"/>
</svg>
