<svg width="25" height="25" viewBox="0 0 25 25" fill="none" xmlns="http://www.w3.org/2000/svg">
<path d="M21.5551 17.8758V9.4383H3.43671V17.8758C3.43671 18.893 3.83439 19.8685 4.54228 20.5877C5.25017 21.307 6.21027 21.711 7.21138 21.711H17.7805C18.7816 21.711 19.7417 21.307 20.4496 20.5877C21.1574 19.8685 21.5551 18.893 21.5551 17.8758ZM9.47165 12.8869C9.47165 13.1915 9.35258 13.4835 9.14064 13.6989C8.9287 13.9142 8.64124 14.0352 8.34151 14.0352C8.04178 14.0352 7.75433 13.9142 7.54239 13.6989C7.33045 13.4835 7.21138 13.1915 7.21138 12.8869C7.21138 12.5824 7.33045 12.2903 7.54239 12.075C7.75433 11.8597 8.04178 11.7387 8.34151 11.7387C8.64124 11.7387 8.9287 11.8597 9.14064 12.075C9.35258 12.2903 9.47165 12.5824 9.47165 12.8869ZM9.47165 16.7222C9.47165 17.0267 9.35258 17.3188 9.14064 17.5341C8.9287 17.7495 8.64124 17.8704 8.34151 17.8704C8.04178 17.8704 7.75433 17.7495 7.54239 17.5341C7.33045 17.3188 7.21138 17.0267 7.21138 16.7222C7.21138 16.4176 7.33045 16.1256 7.54239 15.9102C7.75433 15.6949 8.04178 15.5739 8.34151 15.5739C8.64124 15.5739 8.9287 15.6949 9.14064 15.9102C9.35258 16.1256 9.47165 16.4176 9.47165 16.7222ZM13.6268 12.8869C13.6268 13.1915 13.5077 13.4835 13.2958 13.6989C13.0839 13.9142 12.7964 14.0352 12.4967 14.0352C12.1969 14.0352 11.9095 13.9142 11.6975 13.6989C11.4856 13.4835 11.3665 13.1915 11.3665 12.8869C11.3665 12.5824 11.4856 12.2903 11.6975 12.075C11.9095 11.8597 12.1969 11.7387 12.4967 11.7387C12.7964 11.7387 13.0839 11.8597 13.2958 12.075C13.5077 12.2903 13.6268 12.5824 13.6268 12.8869ZM13.6268 16.7222C13.6268 17.0267 13.5077 17.3188 13.2958 17.5341C13.0839 17.7495 12.7964 17.8704 12.4967 17.8704C12.1969 17.8704 11.9095 17.7495 11.6975 17.5341C11.4856 17.3188 11.3665 17.0267 11.3665 16.7222C11.3665 16.4176 11.4856 16.1256 11.6975 15.9102C11.9095 15.6949 12.1969 15.5739 12.4967 15.5739C12.7964 15.5739 13.0839 15.6949 13.2958 15.9102C13.5077 16.1256 13.6268 16.4176 13.6268 16.7222ZM17.7759 12.8869C17.7759 13.1915 17.6569 13.4835 17.4449 13.6989C17.233 13.9142 16.9455 14.0352 16.6458 14.0352C16.3461 14.0352 16.0586 13.9142 15.8467 13.6989C15.6347 13.4835 15.5157 13.1915 15.5157 12.8869C15.5157 12.5824 15.6347 12.2903 15.8467 12.075C16.0586 11.8597 16.3461 11.7387 16.6458 11.7387C16.9455 11.7387 17.233 11.8597 17.4449 12.075C17.6569 12.2903 17.7759 12.5824 17.7759 12.8869ZM21.5551 7.13717C21.5551 6.12 21.1574 5.1445 20.4496 4.42525C19.7417 3.70601 18.7816 3.30194 17.7805 3.30194H7.21138C6.21027 3.30194 5.25017 3.70601 4.54228 4.42525C3.83439 5.1445 3.43671 6.12 3.43671 7.13717V7.90421H21.5551V7.13717Z" fill="white"/>
</svg>
