<svg width="215" height="215" viewBox="0 0 215 215" fill="none" xmlns="http://www.w3.org/2000/svg">
<path d="M104.501 1.45685C106.095 -0.136615 108.68 -0.136615 110.274 1.45685L110.395 1.57734C111.869 3.05002 114.215 3.17722 115.839 1.87252L115.972 1.76577C117.729 0.354062 120.299 0.633463 121.712 2.39L121.818 2.52281C123.124 4.1462 125.443 4.52631 127.199 3.40489L127.342 3.31313C129.242 2.09973 131.766 2.65525 132.981 4.55426L133.073 4.69787C134.196 6.45293 136.459 7.0815 138.326 6.15649L138.479 6.08081C140.499 5.07994 142.948 5.90508 143.95 7.9243L144.026 8.07697C144.953 9.94315 147.135 10.8128 149.091 10.0951L149.251 10.0363C151.368 9.25973 153.713 10.3448 154.491 12.4606L154.55 12.6206C155.269 14.5759 157.345 15.6765 159.367 15.1744L159.532 15.1333C161.72 14.5901 163.935 15.9224 164.48 18.1099L164.521 18.2753C165.024 20.297 166.969 21.6155 169.034 21.335L169.202 21.3121C171.436 21.0086 173.493 22.5725 173.799 24.8061L173.822 24.9749C174.104 27.0392 175.894 28.5603 177.977 28.5047L178.148 28.5001C180.401 28.4399 182.277 30.217 182.339 32.4705L182.344 32.6409C182.401 34.7236 184.017 36.4294 186.093 36.5992L186.263 36.6131C188.51 36.7969 190.183 38.7665 190.001 41.0135L189.987 41.1834C189.819 43.26 191.241 45.1305 193.287 45.5239L193.454 45.5561C195.668 45.9817 197.118 48.1206 196.694 50.3347L196.662 50.5021C196.27 52.5484 197.482 54.5616 199.473 55.1739L199.636 55.224C201.791 55.8865 203.001 58.1697 202.34 60.325L202.29 60.488C201.68 62.4799 202.666 64.6123 204.58 65.4363L204.736 65.5037C206.807 66.3953 207.763 68.7959 206.873 70.8671L206.806 71.0238C205.983 72.938 206.734 75.1645 208.547 76.1906L208.695 76.2745C210.657 77.3848 211.348 79.8748 210.24 81.8376L210.156 81.986C209.131 83.8001 209.636 86.0947 211.328 87.3108L211.466 87.4103C213.297 88.7261 213.715 91.2763 212.4 93.1077L212.301 93.2462C211.086 94.9388 211.34 97.2746 212.891 98.6665L213.017 98.7804C214.695 100.286 214.835 102.867 213.33 104.545L213.216 104.672C211.825 106.224 211.825 108.573 213.216 110.125L213.33 110.251C214.835 111.93 214.695 114.51 213.017 116.017L212.891 116.13C211.34 117.522 211.086 119.858 212.301 121.551L212.4 121.689C213.715 123.521 213.297 126.071 211.466 127.387L211.328 127.486C209.636 128.702 209.131 130.997 210.156 132.811L210.24 132.959C211.348 134.922 210.657 137.412 208.695 138.522L208.547 138.606C206.734 139.632 205.983 141.859 206.806 143.773L206.873 143.93C207.763 146.001 206.807 148.402 204.736 149.293L204.58 149.361C202.666 150.185 201.68 152.317 202.29 154.309L202.34 154.472C203.001 156.627 201.791 158.91 199.636 159.573L199.473 159.623C197.482 160.235 196.27 162.248 196.662 164.295L196.694 164.462C197.118 166.676 195.668 168.815 193.454 169.241L193.287 169.273C191.241 169.666 189.819 171.537 189.987 173.613L190.001 173.783C190.183 176.03 188.51 178 186.263 178.184L186.093 178.198C184.017 178.368 182.401 180.073 182.344 182.156L182.339 182.326C182.277 184.58 180.401 186.357 178.148 186.297L177.977 186.292C175.894 186.237 174.104 187.758 173.822 189.822L173.799 189.991C173.493 192.224 171.436 193.788 169.202 193.485L169.034 193.462C166.969 193.181 165.024 194.5 164.521 196.522L164.48 196.687C163.935 198.874 161.72 200.207 159.532 199.664L159.367 199.622C157.345 199.12 155.269 200.221 154.55 202.176L154.491 202.336C153.713 204.452 151.368 205.537 149.251 204.761L149.091 204.702C147.135 203.984 144.953 204.854 144.026 206.72L143.95 206.873C142.948 208.892 140.499 209.717 138.479 208.716L138.326 208.64C136.459 207.715 134.196 208.344 133.073 210.099L132.981 210.243C131.766 212.142 129.242 212.697 127.342 211.484L127.199 211.392C125.443 210.271 123.124 210.651 121.818 212.274L121.712 212.407C120.299 214.163 117.729 214.443 115.972 213.031L115.839 212.924C114.215 211.62 111.869 211.747 110.395 213.22L110.274 213.34C108.68 214.934 106.095 214.933 104.501 213.34L104.38 213.22C102.906 211.747 100.56 211.62 98.9359 212.924L98.8029 213.031C97.0453 214.443 94.4763 214.163 93.0633 212.407L92.9564 212.274C91.6505 210.651 89.3319 210.271 87.576 211.392L87.4324 211.484C85.5324 212.697 83.0087 212.142 81.7938 210.243L81.702 210.099C80.5792 208.344 78.3154 207.715 76.4485 208.64L76.2957 208.716C74.2758 209.717 71.8269 208.892 70.8245 206.873L70.7487 206.72C69.8223 204.854 67.6396 203.984 65.6837 204.702L65.5237 204.761C63.4073 205.537 61.062 204.452 60.2838 202.336L60.2249 202.176C59.5057 200.221 57.4299 199.12 55.4078 199.622L55.2424 199.664C53.0545 200.207 50.8402 198.874 50.2953 196.687L50.2541 196.522C49.7505 194.5 47.8058 193.181 45.7413 193.462L45.5724 193.485C43.3386 193.788 41.2814 192.224 40.9762 189.991L40.9531 189.822C40.6711 187.758 38.8803 186.237 36.7976 186.292L36.6272 186.297C34.3737 186.357 32.4976 184.58 32.4357 182.326L32.431 182.156C32.3738 180.073 30.758 178.368 28.6815 178.198L28.5116 178.184C26.2648 178 24.5918 176.03 24.7739 173.783L24.7877 173.613C24.956 171.537 23.5341 169.666 21.4881 169.273L21.3207 169.241C19.1069 168.815 17.6567 166.676 18.0807 164.462L18.1128 164.295C18.5046 162.248 17.2933 160.235 15.3019 159.623L15.1389 159.573C12.9841 158.91 11.7737 156.627 12.4346 154.472L12.4845 154.309C13.0953 152.317 12.1088 150.185 10.1952 149.361L10.0386 149.293C7.96811 148.402 7.01161 146.001 7.90165 143.93L7.96895 143.773C8.79153 141.859 8.04132 139.632 6.22804 138.606L6.07969 138.522C4.11769 137.412 3.42635 134.922 4.53511 132.959L4.61895 132.811C5.64367 130.997 5.13859 128.702 3.44688 127.486L3.30848 127.387C1.47802 126.071 1.05994 123.521 2.37442 121.689L2.47382 121.551C3.68866 119.858 3.43464 117.522 1.88433 116.13L1.75749 116.017C0.0800277 114.51 -0.0598779 111.93 1.44491 110.251L1.5587 110.125C2.94943 108.573 2.94943 106.224 1.5587 104.672L1.44491 104.545C-0.0598779 102.867 0.0800277 100.286 1.75749 98.7804L1.88433 98.6665C3.43464 97.2746 3.68866 94.9388 2.47382 93.2462L2.37442 93.1077C1.05994 91.2763 1.47802 88.7261 3.30848 87.4103L3.44688 87.3108C5.13859 86.0947 5.64367 83.8001 4.61895 81.986L4.53511 81.8376C3.42635 79.8748 4.11769 77.3848 6.07969 76.2745L6.22805 76.1906C8.04133 75.1645 8.79153 72.938 7.96895 71.0238L7.90165 70.8671C7.01161 68.7959 7.96812 66.3953 10.0386 65.5037L10.1952 65.4363C12.1088 64.6123 13.0953 62.4799 12.4845 60.488L12.4346 60.325C11.7737 58.1697 12.9841 55.8865 15.1389 55.224L15.3019 55.1739C17.2933 54.5616 18.5046 52.5484 18.1128 50.5021L18.0807 50.3347C17.6567 48.1206 19.1069 45.9817 21.3207 45.5561L21.4881 45.5239C23.5341 45.1305 24.956 43.26 24.7877 41.1834L24.7739 41.0135C24.5918 38.7665 26.2648 36.7969 28.5116 36.6131L28.6815 36.5992C30.758 36.4294 32.3738 34.7236 32.431 32.6409L32.4357 32.4705C32.4976 30.217 34.3737 28.4399 36.6272 28.5001L36.7976 28.5047C38.8803 28.5603 40.6711 27.0392 40.9531 24.975L40.9762 24.8061C41.2814 22.5725 43.3386 21.0086 45.5724 21.3121L45.7413 21.335C47.8058 21.6155 49.7505 20.297 50.2541 18.2753L50.2953 18.1099C50.8402 15.9224 53.0545 14.5901 55.2424 15.1333L55.4078 15.1744C57.4299 15.6765 59.5057 14.5759 60.2249 12.6206L60.2838 12.4606C61.062 10.3448 63.4073 9.25973 65.5236 10.0363L65.6837 10.0951C67.6396 10.8128 69.8223 9.94315 70.7487 8.07698L70.8245 7.9243C71.8269 5.90508 74.2758 5.07994 76.2957 6.08081L76.4485 6.15649C78.3154 7.0815 80.5792 6.45293 81.702 4.69786L81.7939 4.55427C83.0087 2.65525 85.5324 2.09973 87.4324 3.31313L87.576 3.40489C89.332 4.52631 91.6505 4.1462 92.9564 2.52281L93.0633 2.39C94.4763 0.633465 97.0453 0.354063 98.8029 1.76577L98.9359 1.87252C100.56 3.17722 102.906 3.05002 104.38 1.57734L104.501 1.45685Z" fill="url(#paint0_linear_1_487)"/>
<defs>
<linearGradient id="paint0_linear_1_487" x1="-1.43875" y1="9.5279" x2="241.843" y2="54.2306" gradientUnits="userSpaceOnUse">
<stop offset="0.0899057" stop-color="#1F1F1F"/>
<stop offset="0.494792" stop-color="#3C3C3C"/>
<stop offset="0.948055" stop-color="#232323"/>
</linearGradient>
</defs>
</svg>
