<svg width="206" height="206" viewBox="0 0 206 206" fill="none" xmlns="http://www.w3.org/2000/svg">
<path d="M100.241 1.72858C101.765 0.205787 104.235 0.205787 105.759 1.72858L105.874 1.84373C107.282 3.2511 109.524 3.37266 111.077 2.12581L111.204 2.0238C112.883 0.674701 115.339 0.941709 116.689 2.62034L116.791 2.74728C118.039 4.29867 120.255 4.66193 121.933 3.59023L122.07 3.50255C123.886 2.34296 126.298 2.87385 127.459 4.68865L127.546 4.82587C128.619 6.5031 130.783 7.10379 132.567 6.21981L132.713 6.14748C134.643 5.191 136.984 5.97954 137.941 7.90922L138.014 8.05512C138.899 9.83854 140.985 10.6696 142.854 9.98371L143.007 9.92759C145.03 9.18543 147.271 10.2224 148.015 12.2443L148.071 12.3972C148.758 14.2659 150.742 15.3176 152.674 14.8378L152.833 14.7986C154.923 14.2794 157.04 15.5526 157.56 17.6431L157.6 17.8012C158.081 19.7332 159.939 20.9933 161.912 20.7252L162.074 20.7033C164.208 20.4133 166.174 21.9078 166.466 24.0423L166.488 24.2037C166.758 26.1765 168.469 27.6301 170.459 27.5769L170.622 27.5725C172.776 27.515 174.569 29.2133 174.628 31.3669L174.632 31.5297C174.687 33.5201 176.231 35.1502 178.216 35.3125L178.378 35.3258C180.525 35.5014 182.124 37.3837 181.95 39.531L181.937 39.6933C181.776 41.6779 183.135 43.4654 185.09 43.8413L185.25 43.8721C187.365 44.2789 188.751 46.3229 188.346 48.4388L188.316 48.5988C187.941 50.5544 189.099 52.4783 191.002 53.0634L191.158 53.1113C193.217 53.7444 194.374 55.9263 193.742 57.9861L193.694 58.1418C193.11 60.0454 194.053 62.0832 195.882 62.8707L196.032 62.9351C198.01 63.7872 198.924 66.0813 198.074 68.0607L198.01 68.2104C197.223 70.0397 197.94 72.1675 199.673 73.1481L199.815 73.2283C201.69 74.2893 202.351 76.6689 201.291 78.5446L201.211 78.6865C200.232 80.4201 200.714 82.6129 202.331 83.7751L202.463 83.8702C204.213 85.1277 204.612 87.5647 203.356 89.315L203.261 89.4473C202.1 91.0649 202.343 93.297 203.824 94.6272L203.946 94.736C205.549 96.1753 205.682 98.6413 204.244 100.245L204.135 100.367C202.806 101.849 202.806 104.095 204.135 105.577L204.244 105.698C205.682 107.303 205.549 109.769 203.946 111.208L203.824 111.317C202.343 112.647 202.1 114.879 203.261 116.497L203.356 116.629C204.612 118.379 204.213 120.816 202.463 122.074L202.331 122.169C200.714 123.331 200.232 125.524 201.211 127.257L201.291 127.399C202.351 129.275 201.69 131.655 199.815 132.716L199.673 132.796C197.94 133.776 197.223 135.904 198.01 137.733L198.074 137.883C198.924 139.863 198.01 142.157 196.032 143.009L195.882 143.073C194.053 143.861 193.11 145.898 193.694 147.802L193.742 147.958C194.374 150.018 193.217 152.199 191.158 152.833L191.002 152.88C189.099 153.466 187.941 155.389 188.316 157.345L188.346 157.505C188.751 159.621 187.365 161.665 185.25 162.072L185.09 162.103C183.135 162.478 181.776 164.266 181.937 166.251L181.95 166.413C182.124 168.56 180.525 170.442 178.378 170.618L178.216 170.631C176.231 170.794 174.687 172.424 174.632 174.414L174.628 174.577C174.569 176.731 172.776 178.429 170.622 178.371L170.459 178.367C168.469 178.314 166.758 179.767 166.488 181.74L166.466 181.902C166.174 184.036 164.208 185.531 162.074 185.241L161.912 185.219C159.939 184.951 158.081 186.211 157.6 188.143L157.56 188.301C157.04 190.391 154.923 191.664 152.833 191.145L152.674 191.106C150.742 190.626 148.758 191.678 148.071 193.547L148.015 193.7C147.271 195.721 145.03 196.758 143.007 196.016L142.854 195.96C140.985 195.274 138.899 196.105 138.014 197.889L137.941 198.035C136.984 199.964 134.643 200.753 132.713 199.796L132.567 199.724C130.783 198.84 128.619 199.441 127.546 201.118L127.459 201.255C126.298 203.07 123.886 203.601 122.07 202.441L121.933 202.354C120.255 201.282 118.039 201.645 116.791 203.197L116.689 203.323C115.339 205.002 112.883 205.269 111.204 203.92L111.077 203.818C109.524 202.571 107.282 202.693 105.874 204.1L105.759 204.215C104.235 205.738 101.765 205.738 100.241 204.215L100.126 204.1C98.7176 202.693 96.4756 202.571 94.9232 203.818L94.7962 203.92C93.1166 205.269 90.6615 205.002 89.3111 203.324L89.209 203.197C87.961 201.645 85.7452 201.282 84.0672 202.354L83.9299 202.441C82.1142 203.601 79.7024 203.07 78.5414 201.255L78.4537 201.118C77.3807 199.441 75.2172 198.84 73.4331 199.724L73.2872 199.796C71.3568 200.753 69.0165 199.964 68.0585 198.035L67.9861 197.889C67.1008 196.105 65.0149 195.274 63.1457 195.96L62.9928 196.016C60.9703 196.758 58.729 195.721 57.9853 193.7L57.929 193.547C57.2417 191.678 55.2579 190.626 53.3255 191.106L53.1674 191.145C51.0766 191.664 48.9605 190.391 48.4398 188.301L48.4004 188.143C47.9191 186.211 46.0607 184.951 44.0878 185.219L43.9263 185.241C41.7916 185.531 39.8256 184.036 39.5339 181.902L39.5119 181.74C39.2423 179.767 37.531 178.314 35.5407 178.367L35.3778 178.371C33.2242 178.429 31.4313 176.731 31.3722 174.577L31.3677 174.414C31.313 172.424 29.7689 170.794 27.7845 170.631L27.6221 170.618C25.4749 170.442 23.8762 168.56 24.0502 166.413L24.0634 166.251C24.2242 164.266 22.8654 162.478 20.9101 162.103L20.7502 162.072C18.6345 161.665 17.2486 159.621 17.6538 157.505L17.6845 157.345C18.0589 155.389 16.9014 153.466 14.9982 152.88L14.8425 152.833C12.7833 152.199 11.6265 150.017 12.2581 147.958L12.3058 147.802C12.8895 145.898 11.9468 143.861 10.118 143.073L9.9684 143.009C7.98969 142.157 7.07561 139.863 7.92618 137.883L7.99049 137.733C8.77659 135.904 8.05966 133.776 6.32679 132.796L6.18501 132.716C4.31003 131.655 3.64934 129.275 4.70893 127.399L4.78906 127.257C5.76833 125.524 5.28566 123.331 3.66897 122.169L3.5367 122.074C1.78742 120.816 1.38788 118.379 2.64407 116.629L2.73906 116.497C3.90003 114.879 3.65727 112.647 2.17571 111.317L2.0545 111.208C0.45143 109.769 0.31773 107.303 1.75579 105.698L1.86453 105.577C3.19358 104.095 3.19358 101.849 1.86453 100.367L1.75579 100.245C0.31773 98.6413 0.45143 96.1753 2.0545 94.736L2.17571 94.6272C3.65727 93.297 3.90003 91.0649 2.73906 89.4473L2.64407 89.315C1.38788 87.5647 1.78742 85.1277 3.5367 83.8702L3.66897 83.7751C5.28566 82.6129 5.76833 80.4201 4.78906 78.6865L4.70894 78.5446C3.64935 76.6689 4.31003 74.2893 6.18501 73.2283L6.3268 73.1481C8.05966 72.1675 8.77659 70.0397 7.9905 68.2104L7.92618 68.0607C7.07561 66.0813 7.98969 63.7872 9.9684 62.9351L10.118 62.8707C11.9467 62.0832 12.8895 60.0454 12.3058 58.1418L12.2581 57.9861C11.6265 55.9264 12.7833 53.7444 14.8425 53.1113L14.9982 53.0634C16.9014 52.4783 18.0589 50.5544 17.6845 48.5988L17.6538 48.4388C17.2486 46.3229 18.6345 44.2789 20.7502 43.8721L20.9101 43.8413C22.8654 43.4654 24.2242 41.6779 24.0634 39.6933L24.0502 39.531C23.8762 37.3836 25.4749 35.5014 27.6221 35.3258L27.7845 35.3125C29.7689 35.1502 31.313 33.5201 31.3677 31.5297L31.3722 31.3669C31.4313 29.2133 33.2242 27.515 35.3778 27.5725L35.5407 27.5769C37.531 27.63 39.2423 26.1765 39.5119 24.2037L39.5339 24.0423C39.8256 21.9078 41.7916 20.4133 43.9263 20.7033L44.0878 20.7252C46.0607 20.9933 47.9191 19.7332 48.4004 17.8012L48.4398 17.6431C48.9605 15.5526 51.0766 14.2794 53.1674 14.7986L53.3255 14.8378C55.2579 15.3176 57.2417 14.2659 57.929 12.3972L57.9853 12.2443C58.729 10.2224 60.9703 9.18543 62.9928 9.92759L63.1457 9.98371C65.0149 10.6696 67.1008 9.83854 67.9861 8.05513L68.0585 7.90922C69.0165 5.97954 71.3568 5.191 73.2872 6.14748L73.4331 6.21981C75.2172 7.10379 77.3807 6.5031 78.4537 4.82587L78.5414 4.68864C79.7024 2.87385 82.1142 2.34296 83.9299 3.50255L84.0672 3.59023C85.7452 4.66193 87.961 4.29867 89.209 2.74728L89.3111 2.62035C90.6615 0.941709 93.1166 0.6747 94.7962 2.0238L94.9232 2.12581C96.4756 3.37266 98.7176 3.2511 100.126 1.84373L100.241 1.72858Z" fill="url(#paint0_linear_1_1637)" fill-opacity="0.1"/>
<defs>
<linearGradient id="paint0_linear_1_1637" x1="-6.33066" y1="-23.6899" x2="229.976" y2="27.1352" gradientUnits="userSpaceOnUse">
<stop stop-color="white" stop-opacity="0"/>
<stop offset="0.586175" stop-color="white"/>
<stop offset="1" stop-color="white" stop-opacity="0"/>
</linearGradient>
</defs>
</svg>
