<svg width="150" height="150" viewBox="0 0 150 150" fill="none" xmlns="http://www.w3.org/2000/svg">
<path d="M72.9977 1.51786C74.1038 0.412623 75.8962 0.412623 77.0023 1.51786L77.0859 1.60143C78.1081 2.6229 79.7354 2.71113 80.8621 1.80617L80.9543 1.73213C82.1734 0.752958 83.9553 0.946753 84.9354 2.1651L85.0095 2.25723C85.9153 3.38323 87.5235 3.64688 88.7414 2.86904L88.841 2.80541C90.1588 1.96378 91.9093 2.34909 92.752 3.66627L92.8157 3.76587C93.5944 4.9832 95.1647 5.41918 96.4595 4.77758L96.5655 4.72509C97.9666 4.03088 99.6652 4.6032 100.36 6.00376L100.413 6.10965C101.056 7.40405 102.569 8.00725 103.926 7.50942L104.037 7.46869C105.505 6.93002 107.132 7.68264 107.672 9.15016L107.712 9.26112C108.211 10.6174 109.651 11.3807 111.054 11.0325L111.168 11.004C112.686 10.6272 114.222 11.5513 114.6 13.0686L114.628 13.1833C114.978 14.5856 116.326 15.5001 117.758 15.3056L117.875 15.2897C119.425 15.0791 120.852 16.1639 121.063 17.7131L121.08 17.8303C121.275 19.2621 122.517 20.3171 123.962 20.2785L124.08 20.2753C125.643 20.2336 126.944 21.4662 126.987 23.0293L126.991 23.1475C127.03 24.592 128.151 25.7751 129.591 25.893L129.709 25.9026C131.267 26.0301 132.428 27.3962 132.302 28.9547L132.292 29.0726C132.175 30.513 133.161 31.8103 134.581 32.0832L134.697 32.1055C136.232 32.4007 137.238 33.8843 136.944 35.42L136.922 35.5362C136.65 36.9555 137.49 38.3519 138.871 38.7766L138.984 38.8113C140.479 39.2708 141.319 40.8545 140.86 42.3494L140.826 42.4624C140.402 43.844 141.086 45.3231 142.413 45.8946L142.522 45.9414C143.958 46.5598 144.622 48.2249 144.004 49.6615L143.958 49.7702C143.387 51.0979 143.907 52.6422 145.165 53.3539L145.268 53.4121C146.629 54.1822 147.108 55.9093 146.339 57.2707L146.281 57.3737C145.57 58.6319 145.921 60.2235 147.094 61.067L147.19 61.136C148.46 62.0487 148.75 63.8175 147.838 65.0878L147.769 65.1839C146.926 66.3579 147.103 67.978 148.178 68.9434L148.266 69.0224C149.429 70.067 149.527 71.8568 148.483 73.0211L148.404 73.1091C147.439 74.1852 147.439 75.8148 148.404 76.8909L148.483 76.9789C149.527 78.1432 149.429 79.933 148.266 80.9776L148.178 81.0566C147.103 82.022 146.926 83.6421 147.769 84.8161L147.838 84.9122C148.75 86.1825 148.46 87.9513 147.19 88.864L147.094 88.933C145.921 89.7765 145.57 91.3681 146.281 92.6263L146.339 92.7293C147.108 94.0907 146.629 95.8178 145.268 96.5879L145.165 96.6461C143.907 97.3578 143.387 98.9021 143.958 100.23L144.004 100.338C144.622 101.775 143.958 103.44 142.522 104.059L142.413 104.105C141.086 104.677 140.402 106.156 140.826 107.538L140.86 107.651C141.319 109.146 140.479 110.729 138.984 111.189L138.871 111.223C137.49 111.648 136.65 113.045 136.922 114.464L136.944 114.58C137.238 116.116 136.232 117.599 134.697 117.894L134.581 117.917C133.161 118.19 132.175 119.487 132.292 120.927L132.302 121.045C132.428 122.604 131.267 123.97 129.709 124.097L129.591 124.107C128.151 124.225 127.03 125.408 126.991 126.853L126.987 126.971C126.944 128.534 125.643 129.766 124.08 129.725L123.962 129.722C122.517 129.683 121.275 130.738 121.08 132.17L121.063 132.287C120.852 133.836 119.425 134.921 117.875 134.71L117.758 134.694C116.326 134.5 114.978 135.414 114.628 136.817L114.6 136.931C114.222 138.449 112.686 139.373 111.168 138.996L111.054 138.967C109.651 138.619 108.211 139.383 107.712 140.739L107.672 140.85C107.132 142.317 105.505 143.07 104.037 142.531L103.926 142.491C102.569 141.993 101.056 142.596 100.413 143.89L100.36 143.996C99.6652 145.397 97.9666 145.969 96.5655 145.275L96.4596 145.222C95.1647 144.581 93.5944 145.017 92.8157 146.234L92.752 146.334C91.9093 147.651 90.1588 148.036 88.841 147.195L88.7414 147.131C87.5235 146.353 85.9153 146.617 85.0095 147.743L84.9354 147.835C83.9553 149.053 82.1734 149.247 80.9543 148.268L80.8621 148.194C79.7354 147.289 78.1081 147.377 77.0859 148.399L77.0023 148.482C75.8962 149.587 74.1038 149.587 72.9977 148.482L72.9141 148.399C71.8919 147.377 70.2646 147.289 69.1379 148.194L69.0457 148.268C67.8266 149.247 66.0447 149.053 65.0646 147.835L64.9905 147.743C64.0847 146.617 62.4765 146.353 61.2586 147.131L61.159 147.195C59.8412 148.036 58.0907 147.651 57.248 146.334L57.1843 146.234C56.4056 145.017 54.8353 144.581 53.5404 145.222L53.4345 145.275C52.0334 145.969 50.3348 145.397 49.6396 143.996L49.587 143.89C48.9444 142.596 47.4305 141.993 46.0739 142.491L45.9629 142.531C44.495 143.07 42.8682 142.317 42.3284 140.85L42.2876 140.739C41.7888 139.383 40.349 138.619 38.9464 138.967L38.8317 138.996C37.3141 139.373 35.7783 138.449 35.4003 136.931L35.3718 136.817C35.0225 135.414 33.6736 134.5 32.2417 134.694L32.1245 134.71C30.5751 134.921 29.1482 133.836 28.9365 132.287L28.9205 132.17C28.7249 130.738 27.4828 129.683 26.0382 129.722L25.92 129.725C24.3569 129.766 23.0557 128.534 23.0127 126.971L23.0095 126.853C22.9698 125.408 21.8491 124.225 20.4088 124.107L20.291 124.097C18.7325 123.97 17.5721 122.604 17.6985 121.045L17.708 120.927C17.8247 119.487 16.8385 118.19 15.4194 117.917L15.3033 117.894C13.7678 117.599 12.7619 116.116 13.056 114.58L13.0782 114.464C13.35 113.045 12.5098 111.648 11.1285 111.223L11.0155 111.189C9.52094 110.729 8.68136 109.146 9.13976 107.651L9.17442 107.538C9.59808 106.156 8.91381 104.677 7.58652 104.105L7.47793 104.059C6.04178 103.44 5.37834 101.775 5.99568 100.338L6.04237 100.23C6.61291 98.9021 6.09256 97.3578 4.83485 96.6461L4.73196 96.5879C3.3711 95.8178 2.89157 94.0907 3.66062 92.7293L3.71877 92.6263C4.42953 91.3681 4.0792 89.7765 2.90581 88.933L2.80981 88.864C1.54019 87.9513 1.25021 86.1825 2.16194 84.9122L2.23089 84.8161C3.07352 83.6421 2.89732 82.022 1.82201 81.0566L1.73403 80.9776C0.570532 79.933 0.473493 78.1432 1.51723 76.9789L1.59615 76.8909C2.56078 75.8148 2.56078 74.1852 1.59615 73.1091L1.51723 73.0211C0.473491 71.8568 0.570531 70.067 1.73403 69.0224L1.82201 68.9434C2.89732 67.978 3.07351 66.3579 2.23089 65.1839L2.16194 65.0878C1.25021 63.8175 1.54019 62.0487 2.80981 61.136L2.90581 61.067C4.0792 60.2235 4.42953 58.6319 3.71877 57.3737L3.66062 57.2707C2.89157 55.9093 3.37109 54.1822 4.73196 53.4121L4.83485 53.3539C6.09256 52.6422 6.61291 51.0979 6.04237 49.7702L5.99568 49.6615C5.37834 48.2249 6.04179 46.5598 7.47793 45.9414L7.58652 45.8946C8.91381 45.3231 9.59808 43.844 9.17442 42.4624L9.13976 42.3494C8.68136 40.8545 9.52094 39.2708 11.0155 38.8113L11.1285 38.7766C12.5098 38.3519 13.35 36.9555 13.0782 35.5362L13.056 35.42C12.7619 33.8843 13.7678 32.4007 15.3033 32.1055L15.4194 32.0832C16.8385 31.8103 17.8247 30.513 17.708 29.0726L17.6985 28.9547C17.5721 27.3962 18.7325 26.0301 20.291 25.9026L20.4088 25.893C21.8491 25.7751 22.9698 24.592 23.0095 23.1475L23.0127 23.0293C23.0557 21.4662 24.3569 20.2336 25.92 20.2753L26.0382 20.2785C27.4828 20.3171 28.7249 19.2621 28.9205 17.8303L28.9365 17.7131C29.1482 16.1639 30.5751 15.0791 32.1245 15.2897L32.2417 15.3056C33.6736 15.5001 35.0225 14.5856 35.3718 13.1833L35.4003 13.0686C35.7783 11.5513 37.3141 10.6272 38.8317 11.004L38.9464 11.0325C40.3489 11.3807 41.7888 10.6174 42.2876 9.26112L42.3284 9.15016C42.8682 7.68264 44.495 6.93003 45.9629 7.46869L46.0739 7.50942C47.4305 8.00725 48.9444 7.40405 49.587 6.10966L49.6396 6.00375C50.3348 4.6032 52.0334 4.03088 53.4345 4.72509L53.5404 4.77758C54.8353 5.41918 56.4056 4.9832 57.1843 3.76587L57.248 3.66627C58.0907 2.34909 59.8412 1.96378 61.159 2.80541L61.2586 2.86904C62.4765 3.64688 64.0847 3.38323 64.9905 2.25723L65.0646 2.1651C66.0447 0.946752 67.8266 0.752958 69.0457 1.73213L69.1379 1.80617C70.2646 2.71113 71.8919 2.6229 72.9141 1.60144L72.9977 1.51786Z" fill="url(#paint0_linear_1_1451)"/>
<defs>
<linearGradient id="paint0_linear_1_1451" x1="-0.482908" y1="7.11603" x2="168.26" y2="38.1223" gradientUnits="userSpaceOnUse">
<stop offset="0.0899057" stop-color="#1F1F1F"/>
<stop offset="0.494792" stop-color="#3C3C3C"/>
<stop offset="0.948055" stop-color="#232323"/>
</linearGradient>
</defs>
</svg>
