<svg width="390" height="333" viewBox="0 0 390 333" fill="none" xmlns="http://www.w3.org/2000/svg">
<g filter="url(#filter0_i_1_1342)">
<path fill-rule="evenodd" clip-rule="evenodd" d="M195 126.272C259.629 126.272 312.021 73.8806 312.021 9.25195V9.25195C312.021 4.7719 315.539 0.971924 320.019 0.971924H371C381.493 0.971924 390 9.47851 390 19.9719V313.071C390 323.564 381.493 332.071 371 332.071H19C8.5066 332.071 0 323.564 0 313.071V19.9719C0 9.47849 8.50659 0.971924 19 0.971924H69.9814C74.4615 0.971924 77.9797 4.7719 77.9797 9.25195V9.25195C77.9797 73.8806 130.372 126.272 195 126.272Z" fill="#080810"/>
</g>
<defs>
<filter id="filter0_i_1_1342" x="0" y="0.971924" width="390" height="346.099" filterUnits="userSpaceOnUse" color-interpolation-filters="sRGB">
<feFlood flood-opacity="0" result="BackgroundImageFix"/>
<feBlend mode="normal" in="SourceGraphic" in2="BackgroundImageFix" result="shape"/>
<feColorMatrix in="SourceAlpha" type="matrix" values="0 0 0 0 0 0 0 0 0 0 0 0 0 0 0 0 0 0 127 0" result="hardAlpha"/>
<feOffset dy="15"/>
<feGaussianBlur stdDeviation="10.5"/>
<feComposite in2="hardAlpha" operator="arithmetic" k2="-1" k3="1"/>
<feColorMatrix type="matrix" values="0 0 0 0 1 0 0 0 0 1 0 0 0 0 1 0 0 0 0.07 0"/>
<feBlend mode="normal" in2="shape" result="effect1_innerShadow_1_1342"/>
</filter>
</defs>
</svg>
