<svg width="19" height="19" viewBox="0 0 19 19" fill="none" xmlns="http://www.w3.org/2000/svg">
<path d="M16.25 16.3638L11.75 11.8638M2.75 8.11377C2.75 8.80321 2.8858 9.4859 3.14963 10.1229C3.41347 10.7598 3.80018 11.3386 4.28769 11.8261C4.7752 12.3136 5.35395 12.7003 5.99091 12.9641C6.62787 13.228 7.31056 13.3638 8 13.3638C8.68944 13.3638 9.37213 13.228 10.0091 12.9641C10.646 12.7003 11.2248 12.3136 11.7123 11.8261C12.1998 11.3386 12.5865 10.7598 12.8504 10.1229C13.1142 9.4859 13.25 8.80321 13.25 8.11377C13.25 7.42433 13.1142 6.74164 12.8504 6.10468C12.5865 5.46772 12.1998 4.88897 11.7123 4.40146C11.2248 3.91395 10.646 3.52724 10.0091 3.2634C9.37213 2.99956 8.68944 2.86377 8 2.86377C7.31056 2.86377 6.62787 2.99956 5.99091 3.2634C5.35395 3.52724 4.7752 3.91395 4.28769 4.40146C3.80018 4.88897 3.41347 5.46772 3.14963 6.10468C2.8858 6.74164 2.75 7.42433 2.75 8.11377Z" stroke="white" stroke-width="0.40625" stroke-linecap="round" stroke-linejoin="round"/>
</svg>
